:SAMPLES-PER-SECOND 30
:FULLY-SPECIFIED
:DEGREES
183
root  2.344466758 33.69377917 4.819733327 -17.37701416 -47.61999512 -9.492980957
lowerback  -3.555569887 3.025010109 -0.5107340217
upperback  -2.067800045 4.015639782 -2.385620117
thorax  0.003736479906 1.98506999 -2.016390085
lowerneck  -13.09319973 5.16918993 -4.986289978
upperneck  17.35700035 6.390610218 9.440130234
head  6.956270218 3.624650002 4.504300117
lclavicle  0 -9.442270133e-015 7.951389973e-016
lhumerus  3.493160009 -22.9897995 80.27220154
lradius  2.573868343e-031 -2.41744613e-031 136.7949982
lwrist  -1.059337512e-030 -0 1.93859005
lhand  -1.496451383e-031 -27.76390076 20.11240005
lfingers  90 7.125020027 -90
lthumb  89.89689403 5.08795885 91.16245106
rclavicle  0 -9.442270133e-015 7.951389973e-016
rhumerus  5.800419807 10.92310047 -77.64440155
rradius  -2.678553785e-031 2.300911484e-031 139.3370056
rwrist  0 -0 -14.19159985
rhand  -7.920061211e-032 -33.2840004 9.303460121
rfingers  -90 -7.125020027 -90
rthumb  -92.93752616 -24.25625642 -97.11982154
rfemur  11.86610031 6.21446991 19.41290092
rtibia  -0 0 71.80120087
rfoot  -0 -34.65679932 -9.786950111
rtoes  5.373923086 19.29304026 -105.8922705
lfemur  -0.8645660281 -5.885230064 8.077429771
ltibia  -0 0 72.22399902
lfoot  5.091724381e-032 -29.90209961 -1.801390052
ltoes  -4.250644065 -19.5611806 -102.515957
184
root  2.33717772 33.51866655 4.81468899 -17.50598145 -46.95199585 -9.448974609
lowerback  -3.083319902 3.151350021 -1.006649971
upperback  -2.215260029 4.178569794 -2.621419907
thorax  -0.4241099954 2.066610098 -2.010360003
lowerneck  -12.72229958 5.182509899 -4.930230141
upperneck  16.83769989 6.465030193 9.136799812
head  6.732739925 3.631400108 4.365089893
lclavicle  0 -9.442270133e-015 7.951389973e-016
lhumerus  2.755320072 -22.94169998 80.90540314
lradius  2.590891768e-031 -2.39919234e-031 137.1999969
lwrist  -1.059337512e-030 -0 2.081239939
lhand  -1.496451383e-031 -27.76390076 20.11240005
lfingers  90 7.125020027 -90
lthumb  89.89689403 5.08795885 91.16245106
rclavicle  0 -9.442270133e-015 7.951389973e-016
rhumerus  5.646269798 10.69400024 -77.36579895
rradius  -2.708679421e-031 2.26536969e-031 140.0930023
rwrist  1.412450015e-030 -0 -14.58850002
rhand  -7.920061211e-032 -33.2840004 9.303460121
rfingers  -90 -7.125020027 -90
rthumb  -92.93752616 -24.25625642 -97.11982154
rfemur  11.81019974 5.43584013 18.92300034
rtibia  -0 0 72.39240265
rfoot  -0 -35.27009964 -9.774829865
rtoes  5.373923086 19.29304026 -105.8922705
lfemur  -1.371150017 -6.174449921 8.273530006
ltibia  -0 0 72.86460114
lfoot  5.140611811e-032 -30.83639908 -2.07159996
ltoes  -4.250644065 -19.5611806 -102.515957
185
root  2.351799912 33.35288941 4.75695565 -15.33898926 -46.52099609 -11.75299072
lowerback  -2.946860075 3.162590027 -0.08906749636
upperback  -2.461730003 4.169370174 -2.361180067
thorax  -0.7072049975 2.053509951 -2.271090031
lowerneck  -12.51369953 5.28331995 -4.789480209
upperneck  16.38920021 6.623439789 8.944820404
head  6.554049969 3.697340012 4.265299797
lclavicle  0 -9.442270133e-015 7.951389973e-016
lhumerus  1.683820009 -22.70689964 81.84200287
lradius  2.601877266e-031 -2.387274331e-031 137.4629974
lwrist  -7.062250077e-031 -3.531125038e-031 1.991109967
lhand  -1.496451383e-031 -27.76390076 20.11240005
lfingers  90 7.125020027 -90
lthumb  89.89689403 5.08795885 91.16245106
rclavicle  0 -9.442270133e-015 7.951389973e-016
rhumerus  5.592450142 10.69260025 -77.21060181
rradius  -2.733814312e-031 2.234972783e-031 140.7330017
rwrist  7.062250077e-031 -1.765562519e-031 -14.66499996
rhand  -7.920061211e-032 -33.2840004 9.303460121
rfingers  -90 -7.125020027 -90
rthumb  -92.93752616 -24.25625642 -97.11982154
rfemur  10.91930008 4.529429913 20.54649925
rtibia  -0 0 72.96330261
rfoot  -0 -35.72499847 -10.23690033
rtoes  5.373923086 19.29304026 -105.8922705
lfemur  -2.946039915 -6.122290134 10.75290012
ltibia  -0 0 73.59349823
lfoot  5.17121755e-032 -31.39979935 -3.016439915
ltoes  -4.250644065 -19.5611806 -102.515957
186
root  2.356533366 33.22755408 4.725689024 -14.89001465 -46.04100037 -12.17498779
lowerback  -2.519809961 3.244889975 -0.2750839889
upperback  -2.460890055 4.276140213 -2.425649881
thorax  -0.9493860006 2.107690096 -2.257600069
lowerneck  -12.46969986 5.353109837 -4.599609852
upperneck  15.93620014 6.728889942 8.776579857
head  6.408810139 3.745100021 4.168610096
lclavicle  0 -9.442270133e-015 7.951389973e-016
lhumerus  0.9132919908 -22.67679977 82.37039948
lradius  2.618438781e-031 -2.369097378e-031 137.8619995
lwrist  -1.059337512e-030 -3.531125038e-031 1.818719983
lhand  -1.496451383e-031 -27.76390076 20.11240005
lfingers  90 7.125020027 -90
lthumb  89.89689403 5.08795885 91.16245106
rclavicle  0 -9.442270133e-015 7.951389973e-016
rhumerus  5.60529995 10.74740028 -77.14800262
rradius  -2.751862489e-031 2.212712561e-031 141.197998
rwrist  1.412450015e-030 1.765562519e-031 -14.27929974
rhand  -7.920061211e-032 -33.2840004 9.303460121
rfingers  -90 -7.125020027 -90
rthumb  -92.93752616 -24.25625642 -97.11982154
rfemur  10.61320019 3.857880116 20.58429909
rtibia  -0 0 73.39279938
rfoot  -0 -36.38290024 -10.30930042
rtoes  5.373923086 19.29304026 -105.8922705
lfemur  -3.786129951 -6.050169945 11.43280029
ltibia  -0 0 74.10119629
lfoot  5.207323168e-032 -32.04470062 -3.425790071
ltoes  -4.250644065 -19.5611806 -102.515957
187
root  2.381622134 33.10377767 4.687911131 -15.00799561 -45.3480072 -11.83099365
lowerback  -1.979339957 3.274070024 -0.9621890187
upperback  -2.367520094 4.312329769 -2.604199886
thorax  -1.191470027 2.132659912 -2.089299917
lowerneck  -12.52569962 5.385799885 -4.30136013
upperneck  15.46249962 6.796820164 8.408679962
head  6.29008007 3.764489889 3.992120028
lclavicle  0 -9.442270133e-015 7.951389973e-016
lhumerus  0.2707259953 -22.6746006 82.76550293
lradius  2.636841965e-031 -2.348597132e-031 138.3090057
lwrist  -7.062250077e-031 -0 1.670259953
lhand  -1.496451383e-031 -27.76390076 20.11240005
lfingers  90 7.125020027 -90
lthumb  89.89689403 5.08795885 91.16245106
rclavicle  0 -9.442270133e-015 7.951389973e-016
rhumerus  5.611410141 10.89589977 -77.15809631
rradius  -2.763525895e-031 2.198128446e-031 141.5010071
rwrist  7.062250077e-031 -0 -13.48840046
rhand  -7.920061211e-032 -33.2840004 9.303460121
rfingers  -90 -7.125020027 -90
rthumb  -92.93752616 -24.25625642 -97.11982154
rfemur  10.37520027 3.070389986 19.82699966
rtibia  -0 0 73.75559998
rfoot  -0 -37.06809998 -10.06309986
rtoes  5.373923086 19.29304026 -105.8922705
lfemur  -4.587240219 -6.105279922 11.33220005
ltibia  -0 0 74.52559662
lfoot  5.255694505e-032 -32.87749863 -3.481549978
ltoes  -4.250644065 -19.5611806 -102.515957
188
root  2.442755474 32.97022121 4.631355616 -14.52099609 -44.59599304 -12.17102051
lowerback  -1.366099954 3.282109976 -1.066239953
upperback  -2.260960102 4.311989784 -2.700089931
thorax  -1.425549984 2.133579969 -2.164720058
lowerneck  -12.48830032 5.328370094 -4.022689819
upperneck  14.97239971 6.732930183 8.084890366
head  6.156770229 3.720690012 3.819999933
lclavicle  0 -9.442270133e-015 7.951389973e-016
lhumerus  -0.3051199913 -22.78569984 83.20140076
lradius  2.648980618e-031 -2.334897368e-031 138.6060028
lwrist  0 -3.531125038e-031 1.590350032
lhand  -1.496451383e-031 -27.76390076 20.11240005
lfingers  90 7.125020027 -90
lthumb  89.89689403 5.08795885 91.16245106
rclavicle  0 -9.442270133e-015 7.951389973e-016
rhumerus  5.532000065 10.94799995 -77.17160034
rradius  -2.770914305e-031 2.188807427e-031 141.6940002
rwrist  7.062250077e-031 -1.765562519e-031 -12.44159985
rhand  -7.920061211e-032 -33.2840004 9.303460121
rfingers  -90 -7.125020027 -90
rthumb  -92.93752616 -24.25625642 -97.11982154
rfemur  9.964099884 2.209490061 19.68169975
rtibia  -0 0 74.04290009
rfoot  -0 -37.65129852 -10.02540016
rtoes  5.373923086 19.29304026 -105.8922705
lfemur  -5.697380066 -6.204899788 11.83269978
ltibia  -0 0 74.88249969
lfoot  5.294297698e-032 -33.5182991 -3.666490078
ltoes  -4.250644065 -19.5611806 -102.515957
189
root  2.492466686 32.88555596 4.59280014 -14.10101318 -44.01199341 -12.40100098
lowerback  -0.834232986 3.298340082 -1.145230055
upperback  -2.13041997 4.324039936 -2.768290043
thorax  -1.589589953 2.140749931 -2.219769955
lowerneck  -12.1413002 5.312399864 -4.018099785
upperneck  14.46080017 6.706669807 8.173219681
head  5.934490204 3.710089922 3.812959909
lclavicle  0 -9.442270133e-015 7.951389973e-016
lhumerus  -0.9296090007 -22.82959938 83.60250092
lradius  2.661655651e-031 -2.320438155e-031 138.9179993
lwrist  -1.059337512e-030 -0 1.551069975
lhand  -1.496451383e-031 -27.76390076 20.11240005
lfingers  90 7.125020027 -90
lthumb  89.89689403 5.08795885 91.16245106
rclavicle  0 -9.442270133e-015 7.951389973e-016
rhumerus  5.394159794 11.1718998 -77.25019836
rradius  -2.773052278e-031 2.186098146e-031 141.75
rwrist  7.062250077e-031 -0 -11.4357996
rhand  -7.920061211e-032 -33.2840004 9.303460121
rfingers  -90 -7.125020027 -90
rthumb  -92.93752616 -24.25625642 -97.11982154
rfemur  9.708370209 1.630380034 19.62730026
rtibia  -0 0 74.1536026
rfoot  -0 -38.30879974 -10.19330025
rtoes  5.373923086 19.29304026 -105.8922705
lfemur  -6.527959824 -6.182330132 12.18959999
ltibia  -0 0 75.04889679
lfoot  5.328616079e-032 -34.07139969 -4.029419899
ltoes  -4.250644065 -19.5611806 -102.515957
190
root  2.533911157 32.82044478 4.564066759 -14.14898682 -43.52400208 -11.88897705
lowerback  -0.4698390067 3.356110096 -1.747429967
upperback  -1.884119987 4.391580105 -2.926079988
thorax  -1.572180033 2.181679964 -2.061980009
lowerneck  -12.00800037 5.287990093 -4.006239891
upperneck  14.00650024 6.665989876 8.297590256
head  5.767640114 3.698029995 3.826050043
lclavicle  0 -9.442270133e-015 7.951389973e-016
lhumerus  -1.398949981 -22.81649971 83.89530182
lradius  2.675981545e-031 -2.303902517e-031 139.272995
lwrist  -7.062250077e-031 -3.531125038e-031 1.448500037
lhand  -1.496451383e-031 -27.76390076 20.11240005
lfingers  90 7.125020027 -90
lthumb  89.89689403 5.08795885 91.16245106
rclavicle  0 -9.442270133e-015 7.951389973e-016
rhumerus  5.351679802 11.4048996 -77.41750336
rradius  -2.772212551e-031 2.187162914e-031 141.7279968
rwrist  7.062250077e-031 -1.765562519e-031 -10.63399982
rhand  -7.920061211e-032 -33.2840004 9.303460121
rfingers  -90 -7.125020027 -90
rthumb  -92.93752616 -24.25625642 -97.11982154
rfemur  9.504480362 1.281000018 18.9776001
rtibia  -0 0 74.19039917
rfoot  -0 -39.02939987 -10.26970005
rtoes  5.373923086 19.29304026 -105.8922705
lfemur  -7.05851984 -6.042230129 11.78979969
ltibia  -0 0 75.09329987
lfoot  5.369754962e-032 -34.71509933 -4.393159866
ltoes  -4.250644065 -19.5611806 -102.515957
191
root  2.591755634 32.7519995 4.520133161 -14.26702881 -43.07499695 -11.16900635
lowerback  -0.08952090144 3.504440069 -2.447789907
upperback  -1.581660032 4.576369762 -3.068919897
thorax  -1.514459968 2.280910015 -1.836030006
lowerneck  -12.09010029 5.133069992 -4.151919842
upperneck  13.69639969 6.482800007 8.376270294
head  5.688789845 3.607419968 3.853980064
lclavicle  0 -9.442270133e-015 7.951389973e-016
lhumerus  -1.755169988 -23.00860023 84.41960144
lradius  2.683807408e-031 -2.294781435e-031 139.4680023
lwrist  -1.059337512e-030 -0 1.192399979
lhand  -1.496451383e-031 -27.76390076 20.11240005
lfingers  90 7.125020027 -90
lthumb  89.89689403 5.08795885 91.16245106
rclavicle  0 -9.442270133e-015 7.951389973e-016
rhumerus  5.31885004 11.2748003 -77.4618988
rradius  -2.770799467e-031 2.188952798e-031 141.6909943
rwrist  1.412450015e-030 -1.765562519e-031 -9.932430267
rhand  -7.920061211e-032 -33.2840004 9.303460121
rfingers  -90 -7.125020027 -90
rthumb  -92.93752616 -24.25625642 -97.11982154
rfemur  9.167759895 1.090350032 18.21220016
rtibia  -0 0 74.22190094
rfoot  -0 -39.69340134 -10.31750011
rtoes  5.373923086 19.29304026 -105.8922705
lfemur  -7.581309795 -5.76364994 11.16479969
ltibia  -0 0 75.07640076
lfoot  5.396356651e-032 -35.12070084 -4.646210194
ltoes  -4.250644065 -19.5611806 -102.515957
